<svg width="60" height="60" viewBox="0 0 60 60" fill="none" xmlns="http://www.w3.org/2000/svg">
<g clip-path="url(#clip0_414_9792)">
<path d="M18.6294 42.8115H8.20538C7.42988 42.8115 6.79822 43.4561 6.79822 44.2474C6.79822 45.0387 7.42988 45.6832 8.20538 45.6832H18.6294C19.4049 45.6832 20.0365 45.0387 20.0365 44.2474C20.0365 43.4561 19.4049 42.8115 18.6294 42.8115Z" fill="#0073E6"/>
<path d="M18.6294 47.8115H8.20538C7.42988 47.8115 6.79822 48.4561 6.79822 49.2474C6.79822 50.0387 7.42988 50.6832 8.20538 50.6832H18.6294C19.4049 50.6832 20.0365 50.0387 20.0365 49.2474C20.0365 48.4561 19.4049 47.8115 18.6294 47.8115Z" fill="#0073E6"/>
<path d="M60 35.8398C60 27.319 53.5505 20.3074 45.3702 19.6182V17.5873V13.8015C45.3702 12.8219 44.9808 11.8615 44.3023 11.1691L34.4255 1.08963C33.747 0.397245 32.8057 0 31.8457 0H4.94853C2.2202 0 0 2.26542 0 5.04932V34.1806V54.9507C0 57.7346 2.2202 60 4.94853 60H40.4216C42.2181 60 43.8614 59.0125 44.7401 57.4123C44.7401 57.4123 45.3702 56.3929 45.3702 54.3125V52.0615C53.5489 51.3723 59.9984 44.3607 59.9984 35.8398H60ZM34.1816 4.90255L40.567 11.418H36.3158C35.1385 11.418 34.1816 10.4416 34.1816 9.24034V4.90255ZM40.4232 57.1283H4.94853C3.77121 57.1283 2.81433 56.152 2.81433 54.9507V10.8054V5.04932C2.81433 3.84802 3.77121 2.87165 4.94853 2.87165H31.3673V9.24034C31.3673 12.0243 33.5875 14.2897 36.3158 14.2897H42.5574V19.6325C34.4568 20.4015 28.0933 27.3764 28.0933 35.8398C28.0933 44.3032 34.4568 51.2782 42.5574 52.0471V54.9507C42.5574 56.152 41.6005 57.1283 40.4232 57.1283ZM44.0459 49.2473C36.8005 49.2473 30.9061 43.2327 30.9061 35.8398C30.9061 28.4469 36.8005 22.4324 44.0459 22.4324C51.2912 22.4324 57.1857 28.4469 57.1857 35.8398C57.1857 43.2327 51.2912 49.2473 44.0459 49.2473Z" fill="#0073E6"/>
<path d="M51.7727 39.6719L45.453 35.6468V28.1263C45.453 27.3334 44.8229 26.6904 44.0458 26.6904C43.2688 26.6904 42.6387 27.3334 42.6387 28.1263V36.4429C42.6387 36.939 42.8888 37.3985 43.3016 37.6601L50.2843 42.1064C50.5157 42.2548 50.7737 42.325 51.0285 42.325C51.4976 42.325 51.9572 42.0857 52.223 41.6486C52.6342 40.9753 52.4341 40.0899 51.7743 39.6703L51.7727 39.6719Z" fill="#0073E6"/>
</g>
<defs>
<clipPath id="clip0_414_9792">
<rect width="60" height="60" fill="white"/>
</clipPath>
</defs>
</svg>
