<svg width="60" height="60" viewBox="0 0 60 60" fill="none" xmlns="http://www.w3.org/2000/svg">
<path d="M55.8633 29.2852L43.6992 25.1836C43.4297 25.0898 43.125 25.0898 42.8438 25.1836L30.6797 29.2969C30.1289 29.4844 29.7656 29.9883 29.7656 30.5625V39.8086C29.7656 50.8125 42.2227 56.2266 42.75 56.4492C42.9141 56.5195 43.0898 56.5547 43.2656 56.5547C43.4414 56.5547 43.6172 56.5195 43.7813 56.4492C44.3086 56.2266 56.7656 50.8125 56.7656 39.8086V30.5625C56.7773 29.9766 56.4141 29.4609 55.8633 29.2852ZM54.0938 31.5117V39.7852C54.0938 47.918 45.3047 52.7109 43.2656 53.707C42.1406 53.1562 39.5156 51.7383 37.1133 49.4648C34.0078 46.5234 32.4375 43.2656 32.4375 39.7852V31.5117L43.2656 27.8555L54.0938 31.5117Z" fill="#0073E6"/>
<path d="M38.7891 37.7695C38.332 37.1953 37.4883 37.1016 36.9023 37.5586C36.3281 38.0156 36.2344 38.8594 36.6914 39.4453L41.1094 44.9766C41.3437 45.2695 41.6953 45.457 42.082 45.4805C42.1055 45.4805 42.1406 45.4805 42.164 45.4805C42.5156 45.4805 42.8672 45.3398 43.1133 45.082L50.8594 37.3359C51.1172 37.0781 51.2461 36.75 51.2461 36.3867C51.2461 36.0234 51.1055 35.6953 50.8594 35.4375C50.6133 35.1797 50.2734 35.0508 49.9101 35.0508C49.5469 35.0508 49.2187 35.1914 48.9609 35.4375L42.2812 42.1172L38.7891 37.7695Z" fill="#0073E6"/>
<path d="M13.4063 16.7227C15.3633 16.7227 16.957 15.1289 16.957 13.1719C16.957 11.2148 15.3633 9.62109 13.4063 9.62109C11.4492 9.62109 9.85547 11.2148 9.85547 13.1719C9.85547 15.1289 11.4492 16.7227 13.4063 16.7227ZM13.4063 12.3047C13.8867 12.3047 14.2734 12.6914 14.2734 13.1719C14.2734 13.6523 13.8867 14.0391 13.4063 14.0391C12.9258 14.0391 12.5391 13.6523 12.5391 13.1719C12.5391 12.6914 12.9258 12.3047 13.4063 12.3047Z" fill="#0073E6"/>
<path d="M24.4688 16.7227C26.4258 16.7227 28.0195 15.1289 28.0195 13.1719C28.0195 11.2148 26.4258 9.62109 24.4688 9.62109C22.5117 9.62109 20.918 11.2148 20.918 13.1719C20.918 15.1289 22.5117 16.7227 24.4688 16.7227ZM24.4688 12.3047C24.9492 12.3047 25.3359 12.6914 25.3359 13.1719C25.3359 13.6523 24.9492 14.0391 24.4688 14.0391C23.9883 14.0391 23.6016 13.6523 23.6016 13.1719C23.6016 12.6914 23.9883 12.3047 24.4688 12.3047Z" fill="#0073E6"/>
<path d="M9.85547 26.4375C9.85547 28.3945 11.4492 29.9883 13.4063 29.9883C15.3633 29.9883 16.957 28.3945 16.957 26.4375C16.957 24.4805 15.3633 22.8867 13.4063 22.8867C11.4492 22.8867 9.85547 24.4805 9.85547 26.4375ZM13.4063 27.3164C12.9258 27.3164 12.5391 26.9297 12.5391 26.4492C12.5391 25.9687 12.9258 25.582 13.4063 25.582C13.8867 25.582 14.2734 25.9687 14.2734 26.4492C14.2734 26.9297 13.8867 27.3164 13.4063 27.3164Z" fill="#0073E6"/>
<path d="M24.4688 22.8867C22.5117 22.8867 20.918 24.4805 20.918 26.4375C20.918 28.3945 22.5117 29.9883 24.4688 29.9883C26.4258 29.9883 28.0195 28.3945 28.0195 26.4375C28.0195 24.4805 26.4258 22.8867 24.4688 22.8867ZM24.4688 27.3164C23.9883 27.3164 23.6016 26.9297 23.6016 26.4492C23.6016 25.9687 23.9883 25.582 24.4688 25.582C24.9492 25.582 25.3359 25.9687 25.3359 26.4492C25.3359 26.9297 24.9492 27.3164 24.4688 27.3164Z" fill="#0073E6"/>
<path d="M24.4687 45.0117H11.2031C8.28516 45.0117 5.90625 42.6328 5.90625 39.7148C5.90625 38.2969 6.45703 36.9727 7.45312 35.9766C8.46094 34.9805 9.78516 34.418 11.1914 34.418H24.457C25.1953 34.418 25.793 33.8203 25.793 33.082C25.793 32.3437 25.1953 31.7461 24.457 31.7461H11.2031C8.28516 31.7461 5.90625 29.3672 5.90625 26.4492C5.90625 25.0312 6.45703 23.707 7.45312 22.7109C8.46094 21.7148 9.78516 21.1523 11.1914 21.1523H44.3672C45.5508 21.1523 46.6523 21.5273 47.5664 22.2422C48.1523 22.6992 48.9961 22.5938 49.4531 22.0078C49.9102 21.4219 49.8047 20.5781 49.2188 20.1211C49.0781 20.0156 48.9375 19.9102 48.7852 19.8047C50.9883 18.3281 52.3477 15.8203 52.3477 13.1719C52.3477 8.77734 48.7734 5.19141 44.3672 5.19141H11.2031C6.80859 5.19141 3.22266 8.76563 3.22266 13.1719C3.22266 15.8203 4.57031 18.3281 6.77344 19.8047C6.33984 20.0977 5.92969 20.4258 5.55469 20.8008C4.04297 22.3125 3.21094 24.3164 3.21094 26.4375C3.21094 29.0859 4.55859 31.5938 6.76172 33.0703C6.32812 33.3633 5.91797 33.6914 5.54297 34.0664C4.03125 35.5781 3.19922 37.582 3.19922 39.7031C3.19922 44.0977 6.77344 47.6836 11.1797 47.6836H24.4453C25.1836 47.6836 25.7812 47.0859 25.7812 46.3477C25.7812 45.6094 25.207 45.0117 24.4687 45.0117ZM11.2031 7.875H44.3789C47.2969 7.875 49.6758 10.2539 49.6758 13.1719C49.6758 16.0898 47.2969 18.4688 44.3789 18.4688H11.2031C8.28516 18.4688 5.90625 16.0898 5.90625 13.1719C5.90625 10.2539 8.27344 7.875 11.2031 7.875Z" fill="#0073E6"/>
<path d="M9.85547 39.7148C9.85547 41.6719 11.4492 43.2656 13.4063 43.2656C15.3633 43.2656 16.957 41.6719 16.957 39.7148C16.957 37.7578 15.3633 36.1641 13.4063 36.1641C11.4492 36.1641 9.85547 37.7578 9.85547 39.7148ZM13.4063 40.582C12.9258 40.582 12.5391 40.1953 12.5391 39.7148C12.5391 39.2344 12.9258 38.8477 13.4063 38.8477C13.8867 38.8477 14.2734 39.2344 14.2734 39.7148C14.2734 40.1953 13.8867 40.582 13.4063 40.582Z" fill="#0073E6"/>
<path d="M24.4688 36.1641C22.5117 36.1641 20.918 37.7578 20.918 39.7148C20.918 41.6719 22.5117 43.2656 24.4688 43.2656C26.4258 43.2656 28.0195 41.6719 28.0195 39.7148C28.0195 37.7578 26.4258 36.1641 24.4688 36.1641ZM24.4688 40.582C23.9883 40.582 23.6016 40.1953 23.6016 39.7148C23.6016 39.2344 23.9883 38.8477 24.4688 38.8477C24.9492 38.8477 25.3359 39.2344 25.3359 39.7148C25.3359 40.1953 24.9492 40.582 24.4688 40.582Z" fill="#0073E6"/>
</svg>
