<svg width="60" height="60" viewBox="0 0 60 60" fill="none" xmlns="http://www.w3.org/2000/svg">
<path d="M52.8727 18.8121C52.2545 17.2848 51.0302 16.0606 49.503 15.4424C48.5818 13.1515 46.3272 11.6242 43.8545 11.6242H27.6727C27.2848 11.2242 26.8727 10.8727 26.4605 10.5697L24.509 8.47271C22.8121 6.63028 20.8727 5.72119 18.5696 5.72119H10.1454C6.78782 5.72119 4.06055 8.44846 4.06055 11.806V42.1454C4.06055 44.606 5.58782 46.8606 7.87873 47.7939C8.49691 49.3212 9.72115 50.5454 11.2484 51.1636C12.1696 53.4545 14.4242 54.9818 16.8969 54.9818H50.606C53.9636 54.9818 56.6908 52.2545 56.6908 48.8969V24.4485C56.6908 21.9879 55.1636 19.7333 52.8727 18.8121ZM10.1454 7.7818H18.5696C19.9393 7.7818 21.103 8.20604 22.1818 9.09089C22.0969 9.09089 22.0242 9.09089 21.9515 9.09089H13.5272C10.1696 9.09089 7.44237 11.8182 7.44237 15.1757V45.103C6.61812 44.3394 6.13327 43.2727 6.13327 42.1454V11.806C6.12115 9.58786 7.92721 7.7818 10.1454 7.7818ZM9.50297 15.1879C9.50297 12.9697 11.309 11.1636 13.5272 11.1636H21.9515C23.1272 11.1636 24.1575 11.4788 25.0908 12.1212L25.4181 12.4727C25.3818 12.4727 25.3575 12.4727 25.3212 12.4727H16.8969C13.5393 12.4727 10.8121 15.2 10.8121 18.5576V48.4848C9.98782 47.7212 9.50297 46.6545 9.50297 45.5272V15.1879ZM12.8727 18.5576C12.8727 16.3394 14.6787 14.5333 16.8969 14.5333H25.3212C27.0302 14.5333 28.4363 15.2 29.7454 16.6182L33.006 20.1091C33.1999 20.3151 33.4787 20.4363 33.7575 20.4363H50.6181C52.8363 20.4363 54.6424 22.2424 54.6424 24.4606V48.8969C54.6424 51.1151 52.8363 52.9212 50.6181 52.9212H16.8969C14.6787 52.9212 12.8727 51.1151 12.8727 48.8969V18.5576ZM31.2242 14.9939C31.1757 14.9939 31.1151 14.9939 31.0666 15.006C30.5696 14.4848 30.0363 14.0485 29.4908 13.6848H43.8666C44.9939 13.6848 46.0727 14.1697 46.8242 14.9939H31.2242ZM34.1939 18.3636L32.9696 17.0545H47.2242C48.3515 17.0545 49.4302 17.5394 50.1818 18.3636H34.1939Z" fill="#0073E6"/>
<path d="M41.3333 27.2242H50.606C51.1757 27.2242 51.6363 26.7636 51.6363 26.1939C51.6363 25.6242 51.1757 25.1636 50.606 25.1636H41.3333C40.7636 25.1636 40.303 25.6242 40.303 26.1939C40.303 26.7636 40.7636 27.2242 41.3333 27.2242Z" fill="#0073E6"/>
<path d="M41.3333 30.5938H50.606C51.1757 30.5938 51.6363 30.1332 51.6363 29.5635C51.6363 28.9938 51.1757 28.5332 50.606 28.5332H41.3333C40.7636 28.5332 40.303 28.9938 40.303 29.5635C40.303 30.1332 40.7636 30.5938 41.3333 30.5938Z" fill="#0073E6"/>
</svg>
