<svg width="60" height="60" viewBox="0 0 60 60" fill="none" xmlns="http://www.w3.org/2000/svg">
<path d="M22.8867 17.4727C22.418 17.0039 21.6563 17.0039 21.1875 17.4727C20.7188 17.9414 20.7188 18.7031 21.1875 19.1719L22.2188 20.2031C20.8359 21.9023 20.0039 23.9297 19.7695 26.0977H18.3164C17.6484 26.0977 17.1094 26.6367 17.1094 27.3047C17.1094 27.9727 17.6484 28.5117 18.3164 28.5117H19.7695C20.0039 30.6797 20.8359 32.707 22.2188 34.4062L21.1875 35.4375C20.7188 35.9062 20.7188 36.668 21.1875 37.1367C21.4102 37.3594 21.7148 37.4883 22.043 37.4883C22.3594 37.4883 22.6641 37.3594 22.8984 37.1367L23.9297 36.1055C25.6289 37.4883 27.6562 38.3203 29.8242 38.5547V40.0078C29.8242 40.6758 30.3633 41.2148 31.0312 41.2148C31.6992 41.2148 32.2383 40.6758 32.2383 40.0078V38.5547C34.4063 38.3203 36.4336 37.4883 38.1328 36.1055L39.1641 37.1367C39.3867 37.3594 39.6914 37.4883 40.0195 37.4883C40.3359 37.4883 40.6406 37.3594 40.875 37.1367C41.3437 36.668 41.3437 35.9062 40.875 35.4375L39.8438 34.4062C41.2266 32.707 42.0586 30.6797 42.293 28.5117H43.7461C44.4141 28.5117 44.9531 27.9727 44.9531 27.3047C44.9531 26.9883 44.8242 26.6836 44.6016 26.4492C44.3789 26.2148 44.0742 26.0977 43.7461 26.0977H42.293C42.0586 23.9297 41.2266 21.9023 39.8438 20.2031L40.875 19.1719C41.3437 18.7031 41.3437 17.9414 40.875 17.4727C40.4062 17.0039 39.6445 17.0039 39.1758 17.4727L38.1445 18.5039C36.4219 17.1211 34.3945 16.2891 32.2266 16.0547V14.6016C32.2266 13.9336 31.6875 13.3945 31.0195 13.3945C30.3516 13.3945 29.8125 13.9336 29.8125 14.6016V16.0547C27.6445 16.2891 25.6172 17.1211 23.918 18.5039L22.8867 17.4727ZM22.1133 27.3047C22.1133 22.3945 26.1094 18.3984 31.0195 18.3984C35.9297 18.3984 39.9258 22.3945 39.9258 27.3047C39.9258 32.2148 35.9297 36.2109 31.0195 36.2109C26.1094 36.2109 22.1133 32.2266 22.1133 27.3047Z" fill="#0073E6"/>
<path d="M31.0195 32.0859C33.1992 32.0859 35.0977 30.5977 35.6367 28.5117H36.8555C37.5234 28.5117 38.0625 27.9727 38.0625 27.3047C38.0625 26.6367 37.5234 26.0977 36.8555 26.0977H35.6367C35.0977 24.0117 33.1992 22.5234 31.0195 22.5234C28.3828 22.5234 26.2383 24.668 26.2383 27.3047C26.2383 29.9414 28.3828 32.0859 31.0195 32.0859ZM28.6523 27.3047C28.6523 26.0039 29.7188 24.9375 31.0195 24.9375C32.3203 24.9375 33.3867 26.0039 33.3867 27.3047C33.3867 28.6055 32.3203 29.6719 31.0195 29.6719C29.7188 29.6719 28.6523 28.6172 28.6523 27.3047Z" fill="#0073E6"/>
<path d="M55.5352 42.6563C54.8672 42.6563 54.3281 43.1953 54.3281 43.8633V50.0039C54.3281 50.9063 53.5898 51.6445 52.6875 51.6445H7.3125C6.41016 51.6445 5.67188 50.9063 5.67188 50.0039V43.207H8.42578V46.5469C8.42578 47.8359 9.48047 48.8906 10.7695 48.8906H49.2305C50.5195 48.8906 51.5742 47.8359 51.5742 46.5469V34.0547H54.3281V40.1367C54.3281 40.8047 54.8672 41.3437 55.5352 41.3437C56.2031 41.3437 56.7422 40.8047 56.7422 40.1367V4.61719C56.7422 2.37891 54.9258 0.574219 52.6992 0.574219H7.3125C5.07422 0.574219 3.25781 2.39062 3.25781 4.61719V25.4531C3.25781 26.1211 3.79687 26.6602 4.46484 26.6602C5.13281 26.6602 5.67188 26.1211 5.67188 25.4531V22.9688H8.42578V31.6406H5.67188V29.168C5.67188 28.5 5.13281 27.9609 4.46484 27.9609C3.79687 27.9609 3.25781 28.5 3.25781 29.168V50.0039C3.25781 52.2422 5.07422 54.0469 7.3125 54.0469H8.42578V57.1758C8.42578 58.4648 9.48047 59.5195 10.7695 59.5195H15.8203C17.1094 59.5195 18.1641 58.4648 18.1641 57.1758V54.0469H41.8477V57.1758C41.8477 58.4648 42.9023 59.5195 44.1914 59.5195H49.2422C50.5313 59.5195 51.5859 58.4648 51.5859 57.1758V54.0469H52.6992C54.9375 54.0469 56.7422 52.2305 56.7422 50.0039V43.8633C56.7422 43.1953 56.2031 42.6563 55.5352 42.6563ZM49.1602 54.0469V57.1055H44.25V54.0469H49.1602ZM15.75 54.0469V57.1055H10.8398V54.0469H15.75ZM54.3281 22.9688V31.6406H51.5742V22.9688H54.3281ZM5.67188 40.793V34.0547H11.3789V40.793H5.67188ZM49.2305 5.73047H26.4258C25.7578 5.73047 25.2187 6.26953 25.2187 6.9375C25.2187 7.60547 25.7578 8.14453 26.4258 8.14453H49.1602V46.4766H10.8398V43.207H11.4492C12.7383 43.207 13.793 42.1523 13.793 40.8633V33.9844C13.793 32.6953 12.7383 31.6406 11.4492 31.6406H10.8398V22.9688H11.4492C12.7383 22.9688 13.793 21.9141 13.793 20.625V13.7578C13.793 12.4688 12.7383 11.4141 11.4492 11.4141H10.8398V8.14453H22.7109C23.3789 8.14453 23.918 7.60547 23.918 6.9375C23.918 6.26953 23.3789 5.73047 22.7109 5.73047H10.7695C9.48047 5.73047 8.42578 6.78516 8.42578 8.07422V11.4141H5.67188V4.61719C5.67188 3.71484 6.41016 2.97656 7.3125 2.97656H52.6875C53.5898 2.97656 54.3281 3.71484 54.3281 4.61719V20.5664H51.5742V8.07422C51.5742 6.78516 50.5195 5.73047 49.2305 5.73047ZM11.3789 13.8281V20.5664H5.67188V13.8281H11.3789Z" fill="#0073E6"/>
</svg>
