<svg width="60" height="60" viewBox="0 0 60 60" fill="none" xmlns="http://www.w3.org/2000/svg">
<path d="M59.8843 32.8871C59.3456 27.2423 56.9248 21.9206 53.0676 17.9022C49.7713 14.4684 45.7367 12.2617 41.4914 11.2806V8.17869C43.2254 7.7293 44.5142 6.09425 44.5142 4.15081C44.5142 1.86201 42.7269 0 40.5298 0H32.0922C29.8951 0 28.1077 1.86201 28.1077 4.15081C28.1077 6.09413 29.3966 7.72918 31.1304 8.17869V11.2892C26.8981 12.2746 22.8769 14.4782 19.5899 17.9023C18.8706 18.6517 18.2073 19.4378 17.6002 20.2547C17.5708 20.2524 17.5414 20.2501 17.5114 20.2501H9.16033C8.51321 20.2501 7.98844 20.7967 7.98844 21.4709C7.98844 22.1452 8.51321 22.6918 9.16033 22.6918H16.0056C15.1464 24.1903 14.4535 25.7641 13.9262 27.3841H1.17189C0.524774 27.3841 0 27.9307 0 28.605C0 29.2792 0.524774 29.8258 1.17189 29.8258H13.2639C12.9262 31.3703 12.7324 32.9421 12.6823 34.5183H7.50011C6.85299 34.5183 6.32822 35.0648 6.32822 35.7391C6.32822 36.4134 6.85299 36.9599 7.50011 36.9599H12.7197C12.8186 38.5402 13.0625 40.1121 13.4515 41.6524H5.85946C5.21234 41.6524 4.68757 42.199 4.68757 42.8733C4.68757 43.5475 5.21234 44.0941 5.85946 44.0941H14.1994C15.349 47.2623 17.1456 50.2317 19.5899 52.7781C23.4509 56.8002 28.5645 59.3227 33.9888 59.881C34.7629 59.9606 35.5376 60 36.3113 60C40.8843 60 45.3991 58.6213 49.23 56.0224C49.7724 55.6545 49.9258 54.8982 49.5726 54.3332C49.2194 53.7682 48.4934 53.6084 47.951 53.9763C39.5653 59.665 28.3347 58.435 21.2472 51.0516C12.9312 42.3883 12.9312 28.2923 21.2472 19.629C29.5631 10.9658 43.0941 10.9658 51.4102 19.629C58.4883 27.0027 59.6755 38.6923 54.2328 47.4239C53.8803 47.9894 54.0347 48.7456 54.5774 49.1127C55.1204 49.4799 55.8461 49.3191 56.1985 48.7536C59.1064 44.0882 60.4154 38.4535 59.8843 32.8871ZM30.4515 4.15093C30.4515 3.20846 31.1875 2.44178 32.0922 2.44178H40.5298C41.4345 2.44178 42.1704 3.20846 42.1704 4.15093C42.1704 5.09341 41.4345 5.86009 40.5298 5.86009H40.3195H32.3023H32.0922C31.1875 5.86009 30.4515 5.09329 30.4515 4.15093ZM33.4742 10.8695V8.30175H39.1477V10.8651C37.2637 10.6317 35.3578 10.6332 33.4742 10.8695Z" fill="#0073E6"/>
<path d="M52.2394 50.6934C51.9301 50.6934 51.6289 50.824 51.411 51.0511C51.1919 51.2781 51.0676 51.5931 51.0676 51.9142C51.0676 52.2352 51.1919 52.5502 51.411 52.7773C51.6289 53.0056 51.9302 53.135 52.2394 53.135C52.5476 53.135 52.8488 53.0056 53.068 52.7773C53.2859 52.5502 53.4113 52.2352 53.4113 51.9142C53.4113 51.5931 53.286 51.2781 53.068 51.0511C52.8488 50.824 52.5475 50.6934 52.2394 50.6934Z" fill="#0073E6"/>
<path d="M36.3288 16.4014C26.3047 16.4014 18.1493 24.8971 18.1493 35.3399C18.1493 45.7828 26.3047 54.2785 36.3288 54.2785C46.3529 54.2785 54.5082 45.7828 54.5082 35.3399C54.5082 24.8971 46.3529 16.4014 36.3288 16.4014ZM36.3288 51.8369C27.5969 51.8369 20.4931 44.4363 20.4931 35.3399C20.4931 26.2436 27.5969 18.843 36.3288 18.843C45.0607 18.843 52.1645 26.2436 52.1645 35.3399C52.1645 44.4363 45.0607 51.8369 36.3288 51.8369Z" fill="#0073E6"/>
<path d="M43.7417 25.8912L37.9373 31.9379C37.4519 31.6879 36.9059 31.5466 36.3288 31.5466C35.7515 31.5466 35.2056 31.6879 34.7202 31.9379L32.1225 29.2317C31.6648 28.7549 30.923 28.7549 30.4651 29.2317C30.0075 29.7084 30.0075 30.4814 30.4651 30.9582L33.0628 33.6644C32.8227 34.17 32.6872 34.7388 32.6872 35.3401C32.6872 37.4318 34.3207 39.1337 36.3288 39.1337C38.3368 39.1337 39.9703 37.4318 39.9703 35.3401C39.9703 34.7388 39.8347 34.17 39.5947 33.6644L45.2287 27.7951L45.399 27.6177C45.8566 27.141 45.8566 26.368 45.399 25.8912C44.9414 25.4145 44.1996 25.4145 43.7417 25.8912ZM36.3288 36.6921C35.6132 36.6921 35.031 36.0856 35.031 35.3402C35.031 34.5948 35.6132 33.9883 36.3288 33.9883C37.0443 33.9883 37.6265 34.5948 37.6265 35.3402C37.6265 36.0856 37.0443 36.6921 36.3288 36.6921Z" fill="#0073E6"/>
<path d="M48.8585 34.1338H47.7728C47.1257 34.1338 46.6009 34.6803 46.6009 35.3546C46.6009 36.0288 47.1257 36.5754 47.7728 36.5754H48.8585C49.5056 36.5754 50.0304 36.0288 50.0304 35.3546C50.0304 34.6803 49.5056 34.1338 48.8585 34.1338Z" fill="#0073E6"/>
<path d="M24.8846 34.1045H23.799C23.1519 34.1045 22.6271 34.651 22.6271 35.3253C22.6271 35.9996 23.1519 36.5461 23.799 36.5461H24.8846C25.5317 36.5461 26.0565 35.9996 26.0565 35.3253C26.0565 34.651 25.5317 34.1045 24.8846 34.1045Z" fill="#0073E6"/>
<path d="M36.3431 24.6385C36.9902 24.6385 37.5149 24.0919 37.5149 23.4177V22.2867C37.5149 21.6125 36.9902 21.0659 36.3431 21.0659C35.696 21.0659 35.1712 21.6125 35.1712 22.2867V23.4177C35.1712 24.0919 35.696 24.6385 36.3431 24.6385Z" fill="#0073E6"/>
<path d="M36.3145 46.041C35.6674 46.041 35.1426 46.5876 35.1426 47.2618V48.3928C35.1426 49.067 35.6674 49.6136 36.3145 49.6136C36.9616 49.6136 37.4864 49.067 37.4864 48.3928V47.2618C37.4864 46.5876 36.9616 46.041 36.3145 46.041Z" fill="#0073E6"/>
<path d="M1.17187 41.6519C0.863671 41.6519 0.561328 41.7825 0.343359 42.0096C0.125391 42.2366 0 42.5516 0 42.8727C0 43.195 0.125273 43.5087 0.343359 43.7358C0.561445 43.9628 0.863671 44.0935 1.17187 44.0935C1.48008 44.0935 1.78242 43.9628 2.00027 43.7358C2.21824 43.5087 2.34375 43.1937 2.34375 42.8727C2.34375 42.5516 2.21836 42.2366 2.00027 42.0096C1.78242 41.7825 1.48008 41.6519 1.17187 41.6519Z" fill="#0073E6"/>
</svg>
