<svg width="60" height="60" viewBox="0 0 60 60" fill="none" xmlns="http://www.w3.org/2000/svg">
<g clip-path="url(#clip0_641_8261)">
<path d="M58.125 45.7617H46.875C46.2656 45.7617 45.7617 46.2656 45.7617 46.875V58.125C45.7617 58.7344 46.2656 59.2383 46.875 59.2383H58.125C58.7344 59.2383 59.2383 58.7344 59.2383 58.125V46.875C59.2383 46.2656 58.7344 45.7617 58.125 45.7617ZM51.7383 50.4492V47.9883H53.2617V50.4492H51.7383ZM50.625 52.6758H54.375C54.9844 52.6758 55.4883 52.1719 55.4883 51.5625V47.9883H57.0117V57.0117H47.9883V47.9883H49.5117V51.5625C49.5117 52.1719 50.0156 52.6758 50.625 52.6758Z" fill="#0073E6"/>
<path d="M35.625 45.7617H24.375C23.7656 45.7617 23.2617 46.2656 23.2617 46.875V58.125C23.2617 58.7344 23.7656 59.2383 24.375 59.2383H35.625C36.2344 59.2383 36.7383 58.7344 36.7383 58.125V46.875C36.7383 46.2656 36.2344 45.7617 35.625 45.7617ZM29.2383 50.4492V47.9883H30.7617V50.4492H29.2383ZM28.125 52.6758H31.875C32.4844 52.6758 32.9883 52.1719 32.9883 51.5625V47.9883H34.5117V57.0117H25.4883V47.9883H27.0117V51.5625C27.0117 52.1719 27.5156 52.6758 28.125 52.6758Z" fill="#0073E6"/>
<path d="M36.7383 21.5859V10.3359C36.7383 9.72656 36.2344 9.22266 35.625 9.22266H24.375C23.7656 9.22266 23.2617 9.72656 23.2617 10.3359V21.5859C23.2617 22.1953 23.7656 22.6992 24.375 22.6992H35.625C36.2344 22.6992 36.7383 22.1953 36.7383 21.5859ZM29.2383 13.9102V11.4492H30.7617V13.9102H29.2383ZM28.125 16.1367H31.875C32.4844 16.1367 32.9883 15.6328 32.9883 15.0234V11.4492H34.5117V20.4727H25.4883V11.4492H27.0117V15.0234C27.0117 15.6328 27.5156 16.1367 28.125 16.1367Z" fill="#0073E6"/>
<path d="M13.125 45.7617H1.875C1.26563 45.7617 0.761719 46.2656 0.761719 46.875V58.125C0.761719 58.7344 1.26563 59.2383 1.875 59.2383H13.125C13.7344 59.2383 14.2383 58.7344 14.2383 58.125V46.875C14.2383 46.2656 13.7344 45.7617 13.125 45.7617ZM6.73828 50.4492V47.9883H8.26172V50.4492H6.73828ZM5.625 52.6758H9.375C9.98437 52.6758 10.4883 52.1719 10.4883 51.5625V47.9883H12.0117V57.0117H2.98828V47.9883H4.51172V51.5625C4.51172 52.1719 5.01563 52.6758 5.625 52.6758Z" fill="#0073E6"/>
<path d="M19.8633 50.4492H17.6367V52.3242H15.7617V54.5508H17.6367V56.4258H19.8633V54.5508H21.7383V52.3242H19.8633V50.4492Z" fill="#0073E6"/>
<path d="M42.3633 50.4492H40.1367V52.3242H38.2617V54.5508H40.1367V56.4258H42.3633V54.5508H44.2383V52.3242H42.3633V50.4492Z" fill="#0073E6"/>
<path d="M31.1133 44.2383V39.5508H32.8125C33.2109 39.5508 33.5742 39.3398 33.7852 38.9766C33.9844 38.625 33.9727 38.1914 33.7734 37.8516L30.9609 33.1641C30.7734 32.8477 30.4102 32.6602 30.0117 32.6602C29.6133 32.6602 29.25 32.8477 29.0625 33.1641L26.25 37.8516C26.0508 38.1914 26.0391 38.6133 26.2383 38.9766C26.4375 39.3281 26.8125 39.5508 27.2109 39.5508H28.9102V44.2383H31.1133ZM29.1445 37.3242L30 35.9062L30.8555 37.3242H29.1445Z" fill="#0073E6"/>
<path d="M20.8359 25.0898L20.707 24.9609L19.1367 26.543L19.2656 26.6719C19.6992 27.1055 20.2031 27.5508 20.7539 27.9727L20.8945 28.0781L22.2422 26.3086L22.1016 26.2031C21.6211 25.8281 21.1992 25.4648 20.8359 25.0898Z" fill="#0073E6"/>
<path d="M24.3398 30.0234L25.207 27.9609L25.043 27.8906C24.5508 27.6914 24.0352 27.4336 23.5313 27.1406L23.4961 27.1172H23.3203L22.2539 28.9805L22.4063 29.0625C22.9922 29.4023 23.5781 29.6953 24.1758 29.9414L24.3398 30.0234Z" fill="#0073E6"/>
<path d="M45.0352 13.8047L42.8203 14.0977L42.8438 14.2734C42.9258 14.8945 42.9609 15.4453 42.9609 15.9609V16.1367L45.1875 16.125V15.9492C45.1875 15.3281 45.1406 14.6602 45.0586 13.9805L45.0352 13.8047Z" fill="#0073E6"/>
<path d="M22.1484 5.63672C22.6289 5.27344 23.1094 4.95703 23.5547 4.69922L23.707 4.61719L22.6172 2.68359L22.4648 2.76563C21.8672 3.10547 21.3164 3.48047 20.8008 3.86719L20.6602 3.97266L22.0078 5.74219L22.1484 5.63672Z" fill="#0073E6"/>
<path d="M39.375 27.8906L38.0156 26.1211L37.875 26.2266C37.3945 26.5898 36.9141 26.9063 36.4688 27.1641L36.3164 27.2461L37.4297 29.1797L37.582 29.0977C38.1797 28.7578 38.7305 28.3828 39.2461 27.9961L39.375 27.8906Z" fill="#0073E6"/>
<path d="M17.168 17.6133C17.0859 17.0859 17.0508 16.5234 17.0508 15.9258V15.75H14.8242V15.9258C14.8242 16.5586 14.8711 17.2266 14.9531 17.9063L14.9766 18.082L17.1914 17.7891L17.168 17.6133Z" fill="#0073E6"/>
<path d="M25.0898 3.96094C25.6172 3.75 26.168 3.5625 26.6953 3.42188L26.8594 3.375L26.2852 1.21875L26.1094 1.26563C25.4648 1.44141 24.832 1.65234 24.2227 1.91016L24.0586 1.98047L24.9023 4.04297L25.0898 3.96094Z" fill="#0073E6"/>
<path d="M16.043 21.8789L18.1055 21.0469L18.0352 20.8828C17.8359 20.4258 17.6719 19.9102 17.4961 19.2773L17.4492 19.1133L15.293 19.6875L15.3398 19.8516C15.5039 20.4961 15.7266 21.1289 15.9844 21.7266L16.043 21.8789Z" fill="#0073E6"/>
<path d="M42.832 17.6602C42.7617 18.2344 42.6445 18.7852 42.5039 19.3125L42.457 19.4766L44.6016 20.0625L44.6484 19.8984C44.8242 19.2656 44.9531 18.6094 45.0352 17.9531L45.0586 17.7773L42.8438 17.4844L42.832 17.6602Z" fill="#0073E6"/>
<path d="M32.1445 30.9609L31.8516 28.7461L31.6758 28.7695C31.0547 28.8516 30.5039 28.8867 29.9883 28.8867H29.8125V31.1133H29.9883C30.6211 31.1133 31.2891 31.0664 31.9687 30.9844L32.1445 30.9609Z" fill="#0073E6"/>
<path d="M41.9766 11.0039C42.1875 11.5313 42.375 12.082 42.5156 12.6094L42.5625 12.7734L44.707 12.1992L44.6602 12.0352C44.4961 11.4258 44.2852 10.793 44.0273 10.1484L43.957 9.98438L41.8945 10.8281L41.9766 11.0039Z" fill="#0073E6"/>
<path d="M35.9648 29.8945L35.1094 27.832L34.9453 27.9023C34.4883 28.1016 33.9727 28.2656 33.3398 28.4414L33.1758 28.4883L33.75 30.6445L33.9258 30.5977C34.5586 30.4219 35.1914 30.2109 35.8125 29.9531L35.9648 29.8945Z" fill="#0073E6"/>
<path d="M33.3867 3.43359L33.5625 3.48047L34.1484 1.32422L33.9844 1.27734C33.3516 1.10156 32.6953 0.972656 32.0391 0.890625L31.8633 0.867188L31.5703 3.08203L31.7461 3.10547C32.2734 3.17578 32.8242 3.28125 33.3867 3.43359Z" fill="#0073E6"/>
<path d="M36.4805 4.72266L36.6328 4.80469L37.2188 3.85547L37.7461 2.87109L37.5937 2.78906C36.9609 2.4375 36.3984 2.15625 35.8477 1.92187L35.6836 1.85156L34.8164 3.91406L34.9805 3.98438C35.4492 4.17188 35.9414 4.41797 36.4805 4.72266Z" fill="#0073E6"/>
<path d="M28.1719 31.0078L28.4766 28.793L28.3008 28.7695C27.75 28.6992 27.1992 28.5938 26.6367 28.4297L26.4609 28.3828L25.875 30.5391L26.0391 30.5859C26.6719 30.7617 27.3281 30.8906 27.9844 30.9727L28.1719 31.0078Z" fill="#0073E6"/>
<path d="M18.0469 10.9805C18.2344 10.4883 18.4805 9.98437 18.7734 9.48047L18.9023 9.26953L16.9453 8.20312L16.8633 8.35547C16.5352 8.91797 16.2422 9.51562 15.9844 10.1367L15.9141 10.3008L17.9766 11.168L18.0469 10.9805Z" fill="#0073E6"/>
<path d="M18.7852 22.418L18.7031 22.2656L16.7695 23.3789L16.8633 23.5313C17.2148 24.1289 17.5781 24.6797 17.9648 25.1836L18.0703 25.3242L19.8398 23.9766L19.7344 23.8359C19.3828 23.3789 19.0547 22.8867 18.7852 22.418Z" fill="#0073E6"/>
<path d="M17.1562 14.25C17.25 13.6172 17.3555 13.0781 17.4961 12.5859L17.543 12.4102L15.3867 11.8359L15.3398 12.0117C15.1758 12.6445 15.0469 13.3008 14.9531 13.957L14.9297 14.1328L17.1445 14.4258L17.1562 14.25Z" fill="#0073E6"/>
<path d="M28.3477 3.10547C28.8984 3.03516 29.4609 3 30.0117 3H30.2109V1.74609L30.3281 0.855469L30.2109 0.796875C30.1289 0.75 30.0586 0.75 30 0.75C29.3672 0.75 28.7344 0.796875 28.043 0.878906L27.8672 0.902344L28.1602 3.11719L28.3477 3.10547Z" fill="#0073E6"/>
<path d="M19.7461 8.02734C20.1211 7.53516 20.5195 7.10156 20.8711 6.73828L20.9883 6.60938L19.418 5.03906L19.2891 5.16797C18.8203 5.63672 18.3633 6.15234 17.9766 6.65625L17.8711 6.79688L19.6406 8.15625L19.7461 8.02734Z" fill="#0073E6"/>
<path d="M40.2656 23.8242C39.8906 24.3047 39.5273 24.7266 39.1406 25.0898L39.0117 25.2187L40.582 26.7891L40.7109 26.6719C41.1797 26.2266 41.6133 25.7344 42.0352 25.1836L42.1406 25.043L40.3711 23.6836L40.2656 23.8242Z" fill="#0073E6"/>
<path d="M40.2891 8.07422C40.6289 8.49609 40.9453 8.97656 41.2266 9.48047L41.3086 9.63281L43.2422 8.51953L43.1484 8.36719C42.7969 7.76953 42.4336 7.21875 42.0469 6.71484L41.9414 6.57422L40.1719 7.92187L40.2891 8.07422Z" fill="#0073E6"/>
<path d="M39.1641 6.79688L39.293 6.92578L40.875 5.34375L40.7461 5.21484C40.2656 4.73438 39.7617 4.30078 39.2461 3.91406L39.1055 3.80859L37.7461 5.57812L37.8867 5.68359C38.3789 6.05859 38.8008 6.42187 39.1641 6.79688Z" fill="#0073E6"/>
<path d="M43.1484 23.5078C43.4766 22.9336 43.7695 22.3477 44.0156 21.7617L44.0859 21.5977L42.0234 20.7305L41.9531 20.8945C41.7539 21.3867 41.5078 21.8906 41.2383 22.3477L41.1094 22.5586L43.0547 23.6484L43.1484 23.5078Z" fill="#0073E6"/>
</g>
<defs>
<clipPath id="clip0_641_8261">
<rect width="60" height="60" fill="white"/>
</clipPath>
</defs>
</svg>
